

Source: HP mpeg file

  http://www.imdb.com/title/tt1572315/



A young woman travels to Texas to collect an inheritance; little does she know that an encounter with a chainsaw-wielding killer is part of the reward.



Notes: Source had a small res as with all HP cams, so i just cropped, resized, messed with gamma, sat, bright, contrast, levels and sharpen, yes its darkish in areas but for a 1st cam aint too bad, Audio is nice and clear and in sync. Enjoy.



General

Complete name                            : Texas Chainsaw 2012 CAM x264 AAC-BiGKATS.mp4

Format                                   : MPEG-4

Format profile                           : Base Media

Codec ID                                 : isom

File size                                : 700 MiB

Duration                                 : 1h 26mn

Overall bit rate mode                    : Variable

Overall bit rate                         : 1 136 Kbps

Encoded date                             : UTC 2013-01-10 22:16:32

Tagged date                              : UTC 2013-01-10 22:16:32



Video

ID                                       : 1

Format                                   : AVC

Format/Info                              : Advanced Video Codec

Format profile                           : High@L4.1

Format settings, CABAC                   : Yes

Format settings, ReFrames                : 3 frames

Codec ID                                 : avc1

Codec ID/Info                            : Advanced Video Coding

Duration                                 : 1h 26mn

Bit rate mode                            : Variable

Bit rate                                 : 1 038 Kbps

Maximum bit rate                         : 40.0 Mbps

Width                                    : 640 pixels

Height                                   : 262 pixels

Display aspect ratio                     : 2.40:1

Frame rate mode                          : Constant

Frame rate                               : 29.970 fps

Color space                              : YUV

Chroma subsampling                       : 4:2:0

Bit depth                                : 8 bits

Scan type                                : Progressive

Bits/(Pixel*Frame)                       : 0.207

Stream size                              : 639 MiB (91%)

Writing library                          : x264 core 129 r2230 1cffe9f



Audio

ID                                       : 2

Format                                   : AAC

Format/Info                              : Advanced Audio Codec

Format profile                           : LC

Codec ID                                 : 40

Duration                                 : 1h 26mn

Bit rate mode                            : Variable

Bit rate                                 : 96.0 Kbps

Maximum bit rate                         : 108 Kbps

Channel(s)                               : 2 channels

Channel positions                        : Front: L R

Sampling rate                            : 48.0 KHz

Compression mode                         : Lossy

Stream size                              : 58.0 MiB (8%)

Language                                 : English

Encoded date                             : UTC 2013-01-10 18:28:49

Tagged date                              : UTC 2013-01-10 22:17:07

 
http://i.imgur.com/BYtnK.png 
http://i.imgur.com/AXigH.png 
http://i.imgur.com/ZoOuc.png 
http://i.imgur.com/ug6Uh.png 
http://i.imgur.com/na9Vl.png